<svg width="72" height="78" viewBox="0 0 72 78" fill="none" xmlns="http://www.w3.org/2000/svg">
<path d="M52.7382 18.4881C51.5663 17.3162 49.6679 17.3162 48.4999 18.4881C47.328 19.66 47.328 21.5584 48.4999 22.7264L61.7619 35.9994H23.6209C21.9606 35.9994 20.6208 37.3392 20.6208 38.9994C20.6208 40.6596 21.9606 41.9994 23.6209 41.9994H61.7619L48.4889 55.2614C47.317 56.4333 47.317 58.3317 48.4889 59.4997C49.0787 60.0895 49.8405 60.3786 50.61 60.3786C51.3795 60.3786 52.1491 60.0895 52.7311 59.4997L71.1101 41.1207C72.282 39.9488 72.282 38.0504 71.1101 36.8824L52.7382 18.4881Z" fill="#008DFF"/>
<path d="M16.6211 39C16.6211 35.1289 19.75 32 23.6211 32H40.0001V17.18C40.0001 12.2112 36.6603 7.85192 31.8712 6.53902L13.9922 0.777325C13.9414 0.757793 13.8906 0.746075 13.832 0.726543C10.5039 -0.152367 7.02342 0.554673 4.30082 2.65624C1.57032 4.75784 0.0117188 7.94534 0.0117188 11.3867V66.5777C0.0117188 70.0191 1.57032 73.2066 4.30082 75.3082C6.26172 76.8199 8.60162 77.609 11 77.609C11.9414 77.609 12.8906 77.488 13.8281 77.238C13.8789 77.2262 13.9297 77.2067 13.9883 77.1872L31.8673 71.4372C36.6564 70.1364 39.9962 65.777 39.9962 60.7962L40.0001 45.9992H23.6211C19.75 45.9992 16.6211 42.8711 16.6211 39Z" fill="#008DFF"/>
</svg>
