<svg width="172" height="172" viewBox="0 0 172 172" fill="none" xmlns="http://www.w3.org/2000/svg">
<path d="M114.909 144.588C114.915 145.455 114.402 146.237 113.608 146.573C112.807 146.909 111.885 146.726 111.274 146.121C110.657 145.51 110.474 144.588 110.804 143.794C111.134 142.994 111.909 142.468 112.777 142.468C113.95 142.468 114.902 143.415 114.909 144.588ZM77.4485 142.468C76.5812 142.462 75.7993 142.981 75.4635 143.782C75.1275 144.582 75.3107 145.498 75.9215 146.115C76.5384 146.726 77.4546 146.909 78.2548 146.573C79.0549 146.237 79.5741 145.455 79.568 144.588C79.5558 143.44 78.6457 142.505 77.4974 142.468L77.4485 142.468ZM95.0879 142.468C94.2205 142.462 93.4387 142.981 93.1028 143.782C92.7669 144.582 92.9501 145.498 93.5609 146.115C94.1778 146.726 95.094 146.909 95.8942 146.573C96.6943 146.237 97.2135 145.455 97.2074 144.588C97.2074 143.44 96.2851 142.499 95.1368 142.468L95.0879 142.468ZM59.7903 142.468C58.9291 142.468 58.1473 142.994 57.8175 143.794C57.4877 144.588 57.677 145.51 58.2878 146.121C58.9047 146.726 59.8209 146.909 60.6211 146.573C61.4151 146.237 61.9343 145.455 61.9282 144.588C61.9282 143.434 60.9998 142.487 59.8393 142.468L59.7903 142.468ZM42.151 142.468C41.2897 142.462 40.5018 142.981 40.1659 143.782C39.8361 144.582 40.0132 145.498 40.6301 146.115C41.2409 146.726 42.1632 146.909 42.9634 146.573C43.7574 146.237 44.2766 145.455 44.2705 144.588C44.2644 143.44 43.3482 142.505 42.1999 142.468L42.151 142.468ZM147.892 144.588C147.892 152.681 141.332 159.247 133.233 159.247H38.7672C30.6681 159.247 24.1082 152.681 24.1082 144.588C24.1082 136.495 30.6681 129.929 38.7672 129.929H133.233C141.332 129.929 147.892 136.495 147.892 144.588ZM48.357 144.588C48.3448 142.077 46.8178 139.824 44.4967 138.871C42.1696 137.924 39.5004 138.474 37.7352 140.264C35.9701 142.047 35.457 144.722 36.4404 147.037C37.4176 149.352 39.6898 150.849 42.2002 150.824C43.8493 150.824 45.4313 150.165 46.5979 148.998C47.7584 147.825 48.4058 146.237 48.3936 144.588L48.357 144.588ZM66.0152 144.588C66.003 142.077 64.476 139.824 62.1549 138.877C59.8277 137.924 57.1647 138.474 55.3995 140.257C53.6343 142.041 53.1152 144.71 54.0863 147.025C55.0636 149.34 57.3296 150.836 59.84 150.824C61.4953 150.824 63.0772 150.171 64.2438 148.998C65.4043 147.825 66.058 146.237 66.0456 144.588L66.0152 144.588ZM83.6546 144.588C83.6423 142.077 82.1153 139.824 79.7882 138.871C77.461 137.924 74.798 138.474 73.0328 140.264C71.2676 142.047 70.7546 144.722 71.7318 147.037C72.7091 149.352 74.9873 150.849 77.4977 150.824C79.1469 150.824 80.7227 150.165 81.8893 148.992C83.0498 147.819 83.6972 146.237 83.685 144.588L83.6546 144.588ZM101.294 144.588C101.276 142.084 99.7486 139.842 97.4336 138.901C95.1126 137.961 92.4556 138.51 90.6966 140.288C88.9436 142.071 88.4305 144.735 89.4017 147.037C90.3728 149.346 92.6328 150.836 95.1371 150.824C96.7863 150.824 98.3682 150.165 99.5287 148.998C100.695 147.825 101.337 146.237 101.324 144.588L101.294 144.588ZM118.952 144.588C118.94 142.077 117.413 139.824 115.092 138.877C112.765 137.924 110.102 138.474 108.33 140.257C106.565 142.041 106.052 144.71 107.023 147.025C107.994 149.34 110.266 150.836 112.777 150.824C114.426 150.824 116.014 150.171 117.175 148.998C118.341 147.825 118.989 146.237 118.983 144.588L118.952 144.588ZM136.591 144.588C136.567 142.084 135.046 139.842 132.725 138.901C130.41 137.961 127.753 138.51 125.994 140.288C124.235 142.071 123.722 144.735 124.693 147.037C125.664 149.346 127.93 150.836 130.435 150.824C132.084 150.824 133.666 150.165 134.826 148.998C135.987 147.825 136.634 146.237 136.622 144.588L136.591 144.588ZM130.404 142.468H130.398C129.537 142.462 128.749 142.981 128.413 143.782C128.083 144.582 128.26 145.498 128.877 146.115C129.488 146.726 130.41 146.909 131.21 146.573C132.005 146.237 132.524 145.455 132.518 144.588C132.518 143.433 131.589 142.487 130.435 142.468L130.404 142.468ZM71.6646 61.2453V50.8496C71.5363 46.9283 73.0022 43.1231 75.7265 40.3012C78.4567 37.4793 82.213 35.8851 86.1406 35.8851C90.0619 35.8851 93.8184 37.4793 96.5485 40.3012C99.2787 43.1231 100.745 46.9283 100.61 50.8496V61.2453H108.606V49.3531C108.618 43.8009 106.425 38.4687 102.504 34.5412C98.5826 30.6077 93.2625 28.3966 87.7105 28.3905H84.5649C73.0331 28.3966 63.6872 37.7418 63.67 49.2728V61.2444L71.6646 61.2453ZM95.7727 87.4847C95.8033 91.6258 93.1768 95.3272 89.2555 96.671C88.4187 96.9337 87.8507 97.7155 87.8568 98.589V109.473C87.8568 110.371 87.1299 111.098 86.2259 111.098C85.328 111.098 84.6011 110.371 84.6011 109.473V98.589C84.595 97.7156 84.027 96.9398 83.1963 96.671C79.7147 95.5777 77.1433 92.6153 76.5508 89.0117C75.9584 85.408 77.4426 81.7799 80.3927 79.6238C83.3367 77.4738 87.2458 77.1623 90.4952 78.8237C93.7507 80.485 95.791 83.832 95.7727 87.4847ZM93.4945 87.4847C93.5006 84.4917 91.6988 81.786 88.9379 80.6377C86.1711 79.4894 82.9888 80.1185 80.8693 82.2379C78.7497 84.3573 78.1207 87.5396 79.269 90.3066C80.4173 93.0673 83.1231 94.8693 86.116 94.8632C88.0767 94.8632 89.9579 94.0935 91.3506 92.7071C92.7371 91.3205 93.5189 89.4455 93.525 87.4848L93.4945 87.4847ZM119.13 73.7846V115.124C119.13 119.845 115.301 123.675 110.579 123.675H61.7155C56.9941 123.669 53.1705 119.846 53.1643 115.124V73.7846C53.1704 69.0632 56.9939 65.2396 61.7155 65.2333H110.579C115.301 65.2395 119.124 69.063 119.13 73.7846ZM99.8788 87.4847C99.8788 82.4516 97.1364 77.8219 92.7204 75.4092C88.3043 72.9965 82.9232 73.1919 78.6903 75.9161C74.4576 78.6403 72.0571 83.4594 72.4236 88.474C72.7901 93.4947 75.8684 97.9109 80.4494 99.9936V109.473C80.4494 112.619 83.0025 115.172 86.1481 115.172C89.2937 115.172 91.8468 112.619 91.8468 109.473V99.9936C96.7453 97.7581 99.8849 92.8658 99.8788 87.4847ZM86.1482 84.2292V84.2231C84.8289 84.2231 83.6439 85.0171 83.137 86.2388C82.6361 87.4542 82.911 88.853 83.8455 89.7874C84.7739 90.7158 86.1788 90.9968 87.3942 90.4898C88.6097 89.989 89.4038 88.798 89.4038 87.4847C89.416 86.6113 89.08 85.7683 88.4692 85.1453C87.8585 84.5284 87.0217 84.1742 86.1482 84.1742L86.1482 84.2292Z" fill="#008DFF"/>
</svg>
