<svg width="132" height="132" viewBox="0 0 132 132" fill="none" xmlns="http://www.w3.org/2000/svg">
<path fill-rule="evenodd" clip-rule="evenodd" d="M30.9375 74.25V111.375C30.9375 118.21 36.4774 123.75 43.3125 123.75C55.1554 123.75 76.8446 123.75 88.6875 123.75C95.5226 123.75 101.062 118.21 101.062 111.375V20.625C101.062 13.7899 95.5226 8.25 88.6875 8.25H43.3125C36.4774 8.25 30.9375 13.7899 30.9375 20.625V57.75H48.0645L47.3591 56.9333C44.3973 53.4724 44.7975 48.2624 48.2542 45.2966C51.7151 42.3348 56.9251 42.735 59.8909 46.1917L72.2659 60.6292C74.91 63.7189 74.91 68.2811 72.2659 71.3708L59.8909 85.8083C56.9251 89.265 51.7151 89.6652 48.2542 86.7034C44.7975 83.7375 44.3973 78.5276 47.3591 75.0667L48.0645 74.25H30.9375ZM57.0322 61.875H12.375C10.098 61.875 8.25 63.723 8.25 66C8.25 68.277 10.098 70.125 12.375 70.125H57.0322L50.4941 77.7521C49.0132 79.4805 49.2112 82.0875 50.9396 83.5684C52.668 85.0493 55.275 84.8513 56.7559 83.1229L69.1309 68.6854C70.455 67.1385 70.455 64.8615 69.1309 63.3146L56.7559 48.8771C55.275 47.1487 52.668 46.9507 50.9396 48.4316C49.2112 49.9125 49.0132 52.5195 50.4941 54.2479L57.0322 61.875Z" fill="#008DFF"/>
</svg>
