<svg width="248" height="248" viewBox="0 0 248 248" fill="none" xmlns="http://www.w3.org/2000/svg">
<path d="M120.076 80.8546C124.221 80.8546 128.196 82.5011 131.127 85.4318C134.057 88.3625 135.704 92.3374 135.704 96.482C135.704 105.111 128.705 114.827 120.076 114.827C111.447 114.827 104.449 105.111 104.449 96.482C104.449 92.3374 106.095 88.3625 109.026 85.4318C111.957 82.5011 115.932 80.8546 120.076 80.8546Z" fill="white"/>
<path d="M186.662 75.3683V120.297H185.983C183.28 120.297 180.688 121.371 178.776 123.282C176.865 125.193 175.791 127.786 175.791 130.489C175.778 130.715 175.778 130.942 175.791 131.168H62.9682C62.9817 130.942 62.9817 130.715 62.9682 130.489C62.9682 127.786 61.8944 125.193 59.9831 123.282C58.0717 121.371 55.4794 120.297 52.7764 120.297H52.0969V75.3683H52.7764C55.4794 75.3683 58.0717 74.2945 59.9831 72.3832C61.8944 70.4718 62.9682 67.8795 62.9682 65.1765C62.9817 64.9502 62.9817 64.7233 62.9682 64.497H175.842C175.829 64.7233 175.829 64.9502 175.842 65.1765C175.842 67.8795 176.916 70.4718 178.827 72.3832C180.739 74.2945 183.331 75.3683 186.034 75.3683H186.662ZM135.704 96.4653C135.704 93.3745 134.787 90.3531 133.07 87.7831C131.353 85.2132 128.912 83.2102 126.056 82.0274C123.201 80.8446 120.059 80.5352 117.027 81.1381C113.996 81.7411 111.211 83.2295 109.026 85.415C106.84 87.6006 105.352 90.3851 104.749 93.4165C104.146 96.4479 104.455 99.5901 105.638 102.446C106.821 105.301 108.824 107.742 111.394 109.459C113.964 111.176 116.985 112.093 120.076 112.093C124.218 112.093 128.19 110.449 131.12 107.522C134.051 104.594 135.699 100.624 135.704 96.4822V96.4653Z" fill="#C2E4FF"/>
<path d="M198.893 52.3178C199.253 52.3178 199.599 52.4609 199.854 52.7158C200.109 52.9706 200.252 53.3163 200.252 53.6767V142.005C200.252 142.366 200.109 142.711 199.854 142.966C199.599 143.221 199.253 143.364 198.893 143.364H41.2599C40.8995 143.364 40.5539 143.221 40.299 142.966C40.0442 142.711 39.901 142.366 39.901 142.005V53.6767C39.901 53.3163 40.0442 52.9706 40.299 52.7158C40.5539 52.4609 40.8995 52.3178 41.2599 52.3178H198.893ZM186.663 120.263V75.3682H185.983C183.28 75.3682 180.688 74.2944 178.777 72.3831C176.865 70.4717 175.791 67.8794 175.791 65.1764C175.778 64.9501 175.778 64.7232 175.791 64.4969H62.9684C62.9819 64.7232 62.9819 64.9501 62.9684 65.1764C62.9684 67.8794 61.8946 70.4717 59.9833 72.3831C58.072 74.2944 55.4796 75.3682 52.7766 75.3682H52.0972V120.297H52.7766C55.4796 120.297 58.072 121.371 59.9833 123.282C61.8946 125.193 62.9684 127.786 62.9684 130.489C62.9819 130.715 62.9819 130.942 62.9684 131.168H175.842C175.829 130.942 175.829 130.715 175.842 130.489C175.842 127.786 176.916 125.193 178.827 123.282C180.739 121.371 183.331 120.297 186.034 120.297L186.663 120.263Z" fill="white"/>
<path d="M200.252 81.5342V142.005C200.252 142.366 200.109 142.711 199.854 142.966C199.599 143.221 199.253 143.364 198.893 143.364H41.2599C40.8995 143.364 40.5539 143.221 40.299 142.966C40.0442 142.711 39.901 142.366 39.901 142.005V53.6767C39.901 53.3163 40.0442 52.9706 40.299 52.7158C40.5539 52.4609 40.8995 52.3178 41.2599 52.3178H198.893C199.253 52.3178 199.599 52.4609 199.854 52.7158C200.109 52.9706 200.252 53.3163 200.252 53.6767V81.5342Z" stroke="#515F76" stroke-width="4.07671" stroke-miterlimit="10"/>
<path d="M120.076 112.109C128.707 112.109 135.704 105.113 135.704 96.482C135.704 87.8513 128.707 80.8546 120.076 80.8546C111.446 80.8546 104.449 87.8513 104.449 96.482C104.449 105.113 111.446 112.109 120.076 112.109Z" stroke="#515F76" stroke-width="4.07671" stroke-miterlimit="10"/>
<path d="M78.1371 84.9315H93.4248" stroke="#515F76" stroke-width="3.39726" stroke-miterlimit="10" stroke-linecap="round"/>
<path d="M67.945 96.8218H93.4245" stroke="#515F76" stroke-width="3.39726" stroke-miterlimit="10" stroke-linecap="round"/>
<path d="M78.1371 108.712H93.4248" stroke="#515F76" stroke-width="3.39726" stroke-miterlimit="10" stroke-linecap="round"/>
<path d="M163.069 83.2329H147.781" stroke="#515F76" stroke-width="3.39726" stroke-miterlimit="10" stroke-linecap="round"/>
<path d="M173.26 95.1232H147.781" stroke="#515F76" stroke-width="3.39726" stroke-miterlimit="10" stroke-linecap="round"/>
<path d="M163.069 107.014H147.781" stroke="#515F76" stroke-width="3.39726" stroke-miterlimit="10" stroke-linecap="round"/>
<path d="M39.0685 157.973H190.247" stroke="#515F76" stroke-width="3.39726" stroke-miterlimit="10" stroke-linecap="round"/>
<path d="M39.0685 173.26H185.151" stroke="#515F76" stroke-width="3.39726" stroke-miterlimit="10" stroke-linecap="round"/>
<path d="M39.0685 186.849H190.247" stroke="#515F76" stroke-width="3.39726" stroke-miterlimit="10" stroke-linecap="round"/>
<path d="M209.662 196.362C222.42 196.362 232.763 186.019 232.763 173.26C232.763 160.502 222.42 150.159 209.662 150.159C196.903 150.159 186.56 160.502 186.56 173.26C186.56 186.019 196.903 196.362 209.662 196.362Z" fill="#C2E4FF"/>
<path d="M206.367 169.183L210.443 166.466" stroke="#515F76" stroke-width="4.07671" stroke-miterlimit="10" stroke-linecap="round"/>
<path d="M211.123 180.055V166.466" stroke="#515F76" stroke-width="4.07671" stroke-miterlimit="10" stroke-linecap="round"/>
<path d="M207.046 181.414H215.199" stroke="#515F76" stroke-width="4.07671" stroke-miterlimit="10" stroke-linecap="round"/>
<path d="M209.662 196.362C222.42 196.362 232.763 186.019 232.763 173.26C232.763 160.502 222.42 150.159 209.662 150.159C196.903 150.159 186.56 160.502 186.56 173.26C186.56 186.019 196.903 196.362 209.662 196.362Z" stroke="#515F76" stroke-width="4.07671" stroke-miterlimit="10" stroke-linecap="round"/>
<path d="M215.641 35.0938L221.077 40.5294" stroke="#008DFF" stroke-width="2.71781" stroke-miterlimit="10" stroke-linecap="round"/>
<path d="M221.077 35.0938L215.641 40.5294" stroke="#008DFF" stroke-width="2.71781" stroke-miterlimit="10" stroke-linecap="round"/>
<path d="M195.716 39.4082C197.592 39.4082 199.113 37.8872 199.113 36.011C199.113 34.1347 197.592 32.6137 195.716 32.6137C193.84 32.6137 192.319 34.1347 192.319 36.011C192.319 37.8872 193.84 39.4082 195.716 39.4082Z" stroke="#B8B9BA" stroke-width="2.71781" stroke-miterlimit="10" stroke-linecap="round"/>
<path d="M214.52 62.9341C216.021 62.9341 217.238 61.7173 217.238 60.2163C217.238 58.7153 216.021 57.4985 214.52 57.4985C213.019 57.4985 211.802 58.7153 211.802 60.2163C211.802 61.7173 213.019 62.9341 214.52 62.9341Z" fill="#B8B9BA"/>
<path d="M226.292 142.209C227.793 142.209 229.009 140.992 229.009 139.491C229.009 137.99 227.793 136.774 226.292 136.774C224.791 136.774 223.574 137.99 223.574 139.491C223.574 140.992 224.791 142.209 226.292 142.209Z" fill="#B8B9BA"/>
<path d="M234.139 210.002L238.097 207.929C238.119 207.916 238.144 207.91 238.17 207.91C238.195 207.911 238.22 207.919 238.242 207.933C238.263 207.947 238.28 207.967 238.29 207.991C238.301 208.014 238.304 208.04 238.301 208.065L237.553 212.465L240.951 215.777L236.262 216.456L234.156 220.703L232.05 216.456L227.633 215.811C227.612 215.799 227.594 215.782 227.582 215.761C227.57 215.74 227.563 215.716 227.563 215.692C227.563 215.668 227.57 215.644 227.582 215.623C227.594 215.602 227.612 215.585 227.633 215.573L230.827 212.448L230.028 207.776L234.139 210.002Z" fill="#B8B9BA"/>
<path d="M215.42 214.248C216.921 214.248 218.138 213.032 218.138 211.531C218.138 210.03 216.921 208.813 215.42 208.813C213.919 208.813 212.703 210.03 212.703 211.531C212.703 213.032 213.919 214.248 215.42 214.248Z" fill="#B8B9BA"/>
<path d="M32.2741 28.8768V39.0685" stroke="#B8B9BA" stroke-width="3.39726" stroke-miterlimit="10" stroke-linecap="round"/>
<path d="M37.37 33.9726H27.1782" stroke="#B8B9BA" stroke-width="3.39726" stroke-miterlimit="10" stroke-linecap="round"/>
<path d="M24.2734 62.9341C25.7744 62.9341 26.9912 61.7173 26.9912 60.2163C26.9912 58.7153 25.7744 57.4985 24.2734 57.4985C22.7723 57.4985 21.5555 58.7153 21.5555 60.2163C21.5555 61.7173 22.7723 62.9341 24.2734 62.9341Z" fill="#B8B9BA"/>
<path d="M9.78397 52.3179C11.285 52.3179 12.5018 51.1011 12.5018 49.6001C12.5018 48.0991 11.285 46.8823 9.78397 46.8823C8.28297 46.8823 7.06616 48.0991 7.06616 49.6001C7.06616 51.1011 8.28297 52.3179 9.78397 52.3179Z" fill="#B8B9BA"/>
<path d="M56.887 80.8039C58.2459 80.8039 56.3094 80.8039 56.5472 80.8039C60.8787 80.8039 64.6837 76.5743 66.1955 74.6379C66.4369 74.3287 66.7428 74.0759 67.0919 73.897C67.441 73.718 67.8249 73.6173 68.2168 73.6017C80.6508 73.0921 176.929 70.6121 176.929 70.6121C176.182 67.8943 175.74 67.5716 175.74 65.856C175.718 65.63 175.718 65.4025 175.74 65.1765H62.9681C63.0057 65.2924 63.0057 65.4173 62.9681 65.5332C62.9331 67.8947 62.0597 70.1668 60.5039 71.9436C58.948 73.7204 56.8111 74.8861 54.4749 75.2324C50.687 75.8269 53.6086 75.3683 51.3834 75.3173V120.297C50.8612 120.382 50.3903 120.661 50.0642 121.078C49.7382 121.495 49.5809 122.019 49.6237 122.546C49.6665 123.074 49.9063 123.566 50.2953 123.924C50.6843 124.283 51.194 124.482 51.7231 124.482C52.2523 124.482 52.762 124.283 53.151 123.924C53.54 123.566 53.7797 123.074 53.8225 122.546C53.8653 122.019 53.7081 121.495 53.382 121.078C53.056 120.661 52.585 120.382 52.0629 120.297C53.2519 120.297 56.819 120.518 56.819 120.892V80.8039H56.887Z" fill="#86C9FF"/>
<path d="M185.388 75.3852C182.92 75.1806 180.605 74.1073 178.854 72.3563C177.103 70.6052 176.03 68.2898 175.825 65.8219C175.8 65.494 175.8 65.1646 175.825 64.8367C175.827 64.7996 175.822 64.7624 175.809 64.7275C175.797 64.6925 175.777 64.6605 175.752 64.6335C175.726 64.6064 175.695 64.5848 175.661 64.5701C175.627 64.5554 175.59 64.5479 175.553 64.5479H63.2569C63.2197 64.5479 63.1829 64.5554 63.1488 64.5701C63.1146 64.5848 63.0839 64.6064 63.0584 64.6335C63.0329 64.6605 63.0133 64.6925 63.0007 64.7275C62.9881 64.7624 62.9828 64.7996 62.9851 64.8367C63.0095 65.159 63.0095 65.4827 62.9851 65.8049C62.7805 68.2729 61.7072 70.5882 59.9561 72.3393C58.2051 74.0904 55.8897 75.1636 53.4218 75.3682C53.0995 75.3926 52.7758 75.3926 52.4536 75.3682C52.4165 75.3659 52.3793 75.3712 52.3443 75.3838C52.3094 75.3964 52.2774 75.4161 52.2503 75.4416C52.2232 75.467 52.2017 75.4978 52.187 75.5319C52.1723 75.566 52.1647 75.6028 52.1648 75.64V119.974C52.1647 120.011 52.1723 120.048 52.187 120.082C52.2017 120.116 52.2232 120.147 52.2503 120.173C52.2774 120.198 52.3094 120.218 52.3443 120.23C52.3793 120.243 52.4165 120.248 52.4536 120.246C52.7815 120.221 53.1109 120.221 53.4388 120.246C55.9043 120.457 58.2159 121.533 59.9657 123.282C61.7155 125.032 62.7909 127.344 63.0021 129.809C63.0273 130.137 63.0273 130.467 63.0021 130.795C62.9997 130.832 63.005 130.869 63.0177 130.904C63.0303 130.939 63.0499 130.971 63.0754 130.998C63.1009 131.025 63.1316 131.046 63.1658 131.061C63.1999 131.076 63.2367 131.083 63.2738 131.083H175.553C175.589 131.081 175.624 131.072 175.656 131.056C175.688 131.041 175.717 131.019 175.741 130.992C175.764 130.965 175.782 130.934 175.794 130.9C175.806 130.866 175.81 130.83 175.808 130.795C175.783 130.467 175.783 130.137 175.808 129.809C176.013 127.341 177.086 125.026 178.837 123.275C180.588 121.524 182.903 120.451 185.371 120.246C185.699 120.221 186.029 120.221 186.357 120.246C186.394 120.248 186.431 120.243 186.466 120.23C186.501 120.218 186.533 120.198 186.56 120.173C186.587 120.147 186.608 120.116 186.623 120.082C186.638 120.048 186.645 120.011 186.645 119.974V75.674C186.645 75.6368 186.638 75.6 186.623 75.5659C186.608 75.5318 186.587 75.501 186.56 75.4755C186.533 75.4501 186.501 75.4304 186.466 75.4178C186.431 75.4052 186.394 75.3999 186.357 75.4022C186.034 75.421 185.71 75.4153 185.388 75.3852Z" stroke="#515F76" stroke-width="4.07671" stroke-miterlimit="10"/>
</svg>
