<svg width="24" height="24" viewBox="0 0 24 24" fill="none" xmlns="http://www.w3.org/2000/svg">
<path d="M13.6012 10.4529L15.3512 9.5" stroke="#008DFF" stroke-width="0.5" stroke-linecap="round" stroke-linejoin="round"/>
<path d="M15.3512 9.5V16.5" stroke="#008DFF" stroke-width="0.5" stroke-linecap="round" stroke-linejoin="round"/>
<path d="M10.5007 13C11.4513 13 12.2291 13.7778 12.2291 14.7284C12.2291 15.679 11.4513 16.4568 10.5007 16.4568H9.8093C8.5994 16.4568 8.1673 16.2839 7.6488 15.8518" stroke="#008DFF" stroke-width="0.5" stroke-linecap="round" stroke-linejoin="round"/>
<path d="M7.6488 10.1482C8.1673 9.71606 8.68585 9.54321 9.8093 9.54321H10.5007C11.4513 9.54321 12.2291 10.321 12.2291 11.2716C12.2291 12.2222 11.4513 13 10.5007 13H8.77225" stroke="#008DFF" stroke-width="0.5" stroke-linecap="round" stroke-linejoin="round"/>
<path d="M4.04942 3.92938C3.51937 3.92938 3.08972 4.35903 3.08972 4.88908V20.7903C3.08972 21.3203 3.51937 21.75 4.04937 21.75H19.9506C20.4806 21.75 20.9103 21.3204 20.9103 20.7904V4.88908C20.9103 4.35903 20.4807 3.92938 19.9506 3.92938H4.04942Z" stroke="#008DFF" stroke-linecap="round" stroke-linejoin="round"/>
<path d="M6.40833 5.129V2.25" stroke="#008DFF" stroke-linecap="round" stroke-linejoin="round"/>
<path d="M17.5917 5.129V2.25" stroke="#008DFF" stroke-linecap="round" stroke-linejoin="round"/>
</svg>
