<svg width="28" height="26" viewBox="0 0 28 26" fill="none" xmlns="http://www.w3.org/2000/svg">
<path fill-rule="evenodd" clip-rule="evenodd" d="M27.3334 5.66665V21.6666H23.3309L23.3334 25.6667L16.6667 21.6666H11.3334V5.66665H27.3334ZM16.6667 0.333313V4.33331H10.0001L10.0001 17.1333L4.66675 20.3333L4.66927 16.3333H0.666748V0.333313H16.6667ZM20.1167 9.66665H18.5584L15.6001 17.6666H17.0059L17.8245 15.3745H20.828L21.6523 17.6666H23.1428L20.1167 9.66665ZM19.3263 11.0047C19.4481 11.4131 19.5772 11.8157 19.7134 12.2125L19.7723 12.3822L20.4441 14.2792H18.2028L18.8746 12.3822C19.0628 11.8591 19.2133 11.3999 19.3263 11.0047ZM7.98118 2.49201H6.64785L6.64783 3.15863L3.31452 3.15867V4.49201L8.29148 4.49207C8.21152 5.62759 7.92343 6.6504 7.42763 7.56669C6.8893 6.82628 6.51845 5.9987 6.31283 5.0788L6.29965 5.01868L4.99605 5.29867L5.09386 5.70571C5.39072 6.81997 5.90289 7.82405 6.62791 8.71218C5.84155 9.56073 4.71468 10.1559 3.22658 10.4951L3.1699 10.5079L3.45914 11.8095L3.85713 11.7137C5.41031 11.3102 6.64989 10.6289 7.55991 9.6678C8.1977 10.2179 8.98807 10.7379 9.93078 11.2305L10 11.2665L10 9.74815C9.35496 9.37658 8.81101 8.99453 8.36806 8.6035C9.10327 7.40873 9.52141 6.05796 9.62325 4.56025L9.62766 4.49207L10 4.49201V3.15863H7.98114L7.98118 2.49201Z" fill="#008DFF"/>
</svg>
