<svg width="26" height="28" viewBox="0 0 26 28" fill="none" xmlns="http://www.w3.org/2000/svg">
<path d="M18.7821 6.6414C18.3772 6.23656 17.7214 6.23656 17.3179 6.6414C16.9131 7.04624 16.9131 7.70205 17.3179 8.10554L21.8994 12.6908H8.72338C8.14985 12.6908 7.68701 13.1536 7.68701 13.7271C7.68701 14.3006 8.14985 14.7635 8.72338 14.7635H21.8994L17.3141 19.3449C16.9093 19.7497 16.9093 20.4056 17.3141 20.809C17.5179 21.0128 17.7811 21.1127 18.0469 21.1127C18.3127 21.1127 18.5786 21.0128 18.7796 20.809L25.1287 14.4599C25.5336 14.0551 25.5336 13.3993 25.1287 12.9958L18.7821 6.6414Z" fill="#008DFF"/>
<path d="M6.30541 13.7273C6.30541 12.39 7.3863 11.3091 8.72359 11.3091H14.3818V6.1895C14.3818 4.47301 13.228 2.96707 11.5736 2.51352L5.39724 0.523114C5.3797 0.516366 5.36216 0.512318 5.34191 0.505571C4.19221 0.201947 2.98985 0.446197 2.04932 1.17219C1.10605 1.8982 0.567627 2.99934 0.567627 4.18819V23.2542C0.567627 24.443 1.10605 25.5442 2.04932 26.2702C2.72672 26.7924 3.53505 27.065 4.36359 27.065C4.6888 27.065 5.0167 27.0231 5.34056 26.9368C5.35811 26.9327 5.37565 26.926 5.39589 26.9192L11.5723 24.9329C13.2267 24.4835 14.3804 22.9775 14.3804 21.2569L14.3818 16.1452H8.72359C7.3863 16.1452 6.30541 15.0646 6.30541 13.7273Z" fill="#008DFF"/>
</svg>
