<svg width="28" height="28" viewBox="0 0 28 28" fill="none" xmlns="http://www.w3.org/2000/svg">
<circle cx="14" cy="14" r="14" fill="#008DFF"/>
<path d="M15.3056 10.4V21H12.5456V10.4H15.3056ZM13.9056 6.76C14.2656 6.76 14.5656 6.88667 14.8056 7.14C15.059 7.39333 15.1856 7.7 15.1856 8.06C15.1856 8.42 15.059 8.72667 14.8056 8.98C14.5656 9.22 14.2656 9.34 13.9056 9.34C13.5456 9.34 13.239 9.22 12.9856 8.98C12.7323 8.72667 12.6056 8.42 12.6056 8.06C12.6056 7.7 12.7323 7.39333 12.9856 7.14C13.239 6.88667 13.5456 6.76 13.9056 6.76Z" fill="white"/>
</svg>
