<svg width="24" height="24" viewBox="0 0 24 24" fill="none" xmlns="http://www.w3.org/2000/svg">
<path d="M10.25 0.625H1.5C0.975 0.625 0.625 0.975 0.625 1.5V10.25C0.625 10.775 0.975 11.125 1.5 11.125H10.25C10.775 11.125 11.125 10.775 11.125 10.25V1.5C11.125 0.975 10.775 0.625 10.25 0.625Z" fill="#008DFF"/>
<path d="M10.25 12.875H1.5C0.975 12.875 0.625 13.225 0.625 13.75V22.5C0.625 23.025 0.975 23.375 1.5 23.375H10.25C10.775 23.375 11.125 23.025 11.125 22.5V13.75C11.125 13.225 10.775 12.875 10.25 12.875Z" fill="#008DFF"/>
<path d="M22.5 0.625H13.75C13.225 0.625 12.875 0.975 12.875 1.5V10.25C12.875 10.775 13.225 11.125 13.75 11.125H22.5C23.025 11.125 23.375 10.775 23.375 10.25V1.5C23.375 0.975 23.025 0.625 22.5 0.625Z" fill="#008DFF"/>
<path d="M22.5 12.875H13.75C13.225 12.875 12.875 13.225 12.875 13.75V22.5C12.875 23.025 13.225 23.375 13.75 23.375H22.5C23.025 23.375 23.375 23.025 23.375 22.5V13.75C23.375 13.225 23.025 12.875 22.5 12.875Z" fill="#008DFF"/>
</svg>
