<svg width="22" height="25" viewBox="0 0 22 25" fill="none" xmlns="http://www.w3.org/2000/svg">
<path d="M21.5 20.1667V21.3334H0.5V20.1667L2.83333 17.8334V10.8334C2.83333 7.21671 5.20167 4.03171 8.66667 3.00504V2.66671C8.66667 2.04787 8.9125 1.45438 9.35008 1.01679C9.78767 0.579207 10.3812 0.333374 11 0.333374C11.6188 0.333374 12.2123 0.579207 12.6499 1.01679C13.0875 1.45438 13.3333 2.04787 13.3333 2.66671V3.00504C16.7983 4.03171 19.1667 7.21671 19.1667 10.8334V17.8334L21.5 20.1667ZM13.3333 22.5C13.3333 23.1189 13.0875 23.7124 12.6499 24.15C12.2123 24.5875 11.6188 24.8334 11 24.8334C10.3812 24.8334 9.78767 24.5875 9.35008 24.15C8.9125 23.7124 8.66667 23.1189 8.66667 22.5" fill="#008DFF"/>
</svg>
