<svg width="98" height="98" viewBox="0 0 98 98" fill="none" xmlns="http://www.w3.org/2000/svg">
<path d="M49 49C44.5084 49 40.6632 47.4007 37.4646 44.2021C34.266 41.0035 32.6667 37.1583 32.6667 32.6667C32.6667 28.175 34.266 24.3299 37.4646 21.1313C40.6632 17.9326 44.5084 16.3333 49 16.3333C53.4917 16.3333 57.3368 17.9326 60.5355 21.1313C63.7341 24.3299 65.3334 28.175 65.3334 32.6667C65.3334 37.1583 63.7341 41.0035 60.5355 44.2021C57.3368 47.4007 53.4917 49 49 49ZM16.3334 81.6667V70.2333C16.3334 67.9195 16.9295 65.7934 18.1219 63.8552C19.3142 61.9169 20.8958 60.4361 22.8667 59.4125C27.0862 57.3028 31.3737 55.7212 35.7292 54.6677C40.0848 53.6142 44.5084 53.0861 49 53.0833C53.4917 53.0806 57.9153 53.6087 62.2709 54.6677C66.6264 55.7266 70.9139 57.3082 75.1334 59.4125C77.107 60.4333 78.69 61.9142 79.8823 63.8552C81.0746 65.7961 81.6694 67.9222 81.6667 70.2333V81.6667H16.3334Z" fill="#008DFF"/>
</svg>
