<svg width="66" height="66" viewBox="0 0 66 66" fill="none" xmlns="http://www.w3.org/2000/svg">
<path d="M33 33C28.5084 33 24.6632 31.4007 21.4646 28.2021C18.266 25.0035 16.6667 21.1583 16.6667 16.6666C16.6667 12.175 18.266 8.32984 21.4646 5.13123C24.6632 1.93262 28.5084 0.333313 33 0.333313C37.4917 0.333313 41.3368 1.93262 44.5355 5.13123C47.7341 8.32984 49.3334 12.175 49.3334 16.6666C49.3334 21.1583 47.7341 25.0035 44.5355 28.2021C41.3368 31.4007 37.4917 33 33 33ZM0.333374 65.6666V54.2333C0.333374 51.9194 0.929542 49.7934 2.12187 47.8551C3.31421 45.9169 4.89582 44.436 6.86671 43.4125C11.0862 41.3028 15.3737 39.7211 19.7292 38.6676C24.0848 37.6141 28.5084 37.086 33 37.0833C37.4917 37.0806 41.9153 37.6087 46.2709 38.6676C50.6264 39.7266 54.9139 41.3082 59.1334 43.4125C61.107 44.4333 62.69 45.9142 63.8823 47.8551C65.0746 49.7961 65.6694 51.9221 65.6667 54.2333V65.6666H0.333374Z" fill="black"/>
</svg>
